<svg xmlns="http://www.w3.org/2000/svg" width="26" height="26" viewBox="0 0 26 26">
    <path fill="#D9D9D9" fill-rule="evenodd" d="M24 13.786C24 7.83 19.299 3 13.5 3S3 7.83 3 13.786c0 4.728 2.962 8.745 7.083 10.202.252-.186.541-.416.541-.803 0-.594-.013-2.12-.013-2.12s-.455.08-1.106.08c-1.639 0-2.157-1.068-2.404-1.666-.32-.78-.737-1.145-1.18-1.437-.27-.18-.333-.391-.019-.452 1.45-.279 1.822 1.68 2.79 1.993.692.223 1.581.127 2.024-.165.058-.599.48-1.117.832-1.39-2.464-.241-3.925-1.116-4.683-2.521l-.08-.157-.191-.447-.057-.16c-.237-.713-.342-1.53-.342-2.443 0-1.62.494-2.231 1.158-3.095-.508-1.847.182-3.11.182-3.11s1.067-.226 3.083 1.25c1.092-.48 4.006-.519 5.385-.107.845-.571 2.393-1.382 3.018-1.155.169.278.533 1.089.22 2.87.213.39 1.315 1.222 1.319 3.574-.018.867-.106 1.6-.27 2.22l-.091.316s-.052.15-.11.292l-.066.157c-.73 1.64-2.23 2.253-4.653 2.508.785.505 1.01 1.138 1.01 2.852 0 1.715-.022 1.945-.017 2.34.004.348.276.598.52.788C21.023 22.554 24 18.527 24 13.786"/>
</svg>
