<svg xmlns="http://www.w3.org/2000/svg" width="26" height="26" viewBox="0 0 26 26">
  <path
    fill="#D9D9D9"
    fill-rule="nonzero"
    d="M22.094 6.307L20.65 7.689a.424.424 0 0 0-.162.403v10.177a.414.414 0 0 0 .162.403l1.413 1.382v.307H14.97v-.295l1.461-1.418c.144-.145.144-.187.144-.403v-8.23l-4.063 10.316h-.547L7.234 10.015v6.913a.95.95 0 0 0 .265.794l1.9 2.302v.307H4v-.307l1.9-2.302a.92.92 0 0 0 .246-.794V8.933a.686.686 0 0 0-.228-.589l-1.69-2.037V6h5.248l4.052 8.897 3.564-8.891h5.002v.3z"
  />
</svg>
