<svg xmlns="http://www.w3.org/2000/svg" width="26" height="26" viewBox="0 0 26 26">
  <path
    fill="#D9D9D9"
    fill-rule="evenodd"
    d="M21.841 9.25c.014.187.014.374.014.56 0 5.69-4.33 12.246-12.246 12.246-2.438 0-4.704-.706-6.609-1.932.346.04.68.053 1.04.053a8.62 8.62 0 0 0 5.343-1.839 4.312 4.312 0 0 1-4.025-2.985c.267.04.533.067.813.067.387 0 .773-.053 1.133-.147a4.305 4.305 0 0 1-3.451-4.224v-.053c.573.32 1.239.52 1.945.546A4.3 4.3 0 0 1 3.88 7.958c0-.8.214-1.532.587-2.172a12.234 12.234 0 0 0 8.874 4.504 4.859 4.859 0 0 1-.107-.986A4.302 4.302 0 0 1 17.537 5c1.24 0 2.359.52 3.145 1.36a8.474 8.474 0 0 0 2.732-1.04c-.32 1-1 1.839-1.892 2.372A8.628 8.628 0 0 0 24 7.025a9.252 9.252 0 0 1-2.159 2.226z"
  />
</svg>
