<svg xmlns="http://www.w3.org/2000/svg" width="113" height="27" viewBox="0 0 113 27">
  <g fill="#9B9B9B" fill-opacity=".616" fill-rule="evenodd">
    <path
      d="M23.72 16.48l-3.288 3.306c.16-.537.274-1.058.274-1.457a.88.88 0 0 0-.393-.729l-1.462-.98-1.574 1.733-.608 2.158.252-2.425 1.565-1.896.457-.92a.89.89 0 0 0-.45-1.216l-2.774-1.162s3.951-.611 3.951-3.666l-2.736-.917-.607 1.222V8.31a2.287 2.287 0 0 0-2.28-2.294H12.515a2.287 2.287 0 0 0-2.281 2.293v1.22l-.608-1.22-2.736.916c0 3.055 3.952 3.666 3.952 3.666l-2.774 1.162a.889.889 0 0 0-.45 1.216l.457.92 1.565 1.896.252 2.425-.608-2.158-1.575-1.732-1.462.98a.88.88 0 0 0-.392.728c0 .4.113.92.273 1.457l-3.288-3.305a4.448 4.448 0 0 1 0-6.26l7.326-7.365a4.379 4.379 0 0 1 3.114-1.294c1.127 0 2.255.43 3.114 1.294l7.325 7.365a4.448 4.448 0 0 1 0 6.26zm-11.775.804l-.564.955-.842-2.292 1.406 1.337zm3.236.955l-.564-.955 1.406-1.337-.842 2.292zm-.266.719l-.412 3.1-.912-3.361.608-.917.716 1.178zm-1.945-.261l-.912 3.36-.411-3.1.715-1.177.608.917zm-.874-2.654l.097-.225a.336.336 0 0 1 .238-.201c.137-.028.307-.033.397-.033h.905c.091 0 .26.005.398.033.107.022.194.1.238.2l.096.226s-.367.472-1.184.528c-.817-.056-1.185-.528-1.185-.528zm1.979-2.488c0-.112.034-.216.091-.302.24-.016.514-.045.818-.097a.544.544 0 0 1-.367.944.545.545 0 0 1-.542-.545zm.542 1.156c.345 0 .65-.156.861-.398v.692l-.563.624c-.146-.471-.568-.604-.9-.612l-.709-.023h-.05l-.71.023c-.33.008-.754.14-.9.612l-.563-.624v-1.947c1.126.266 1.993.213 2.198.195a4.5 4.5 0 0 0 .227.013c-.024.093-.04.188-.04.289 0 .637.515 1.156 1.15 1.156zM24.82 9.116L17.493 1.75a5.942 5.942 0 0 0-8.425 0L1.742 9.116c-2.323 2.335-2.323 6.135 0 8.47l7.326 7.364a5.924 5.924 0 0 0 4.213 1.75 5.923 5.923 0 0 0 4.212-1.75l7.326-7.365c2.323-2.334 2.323-6.134 0-8.47z"
    />
    <g transform="translate(33 6)">
      <path d="M.47 12.812h2.925V3.537H.47z" />
      <circle cx="1.85" cy="1.55" r="1.55" fill-rule="nonzero" />
      <path
        d="M11.206 3.347c-1.107 0-2.038.437-2.793 1.309V3.537H5.451v9.275h2.962V8.146c0-.695.151-1.227.453-1.594.302-.366.71-.549 1.226-.549s.89.145 1.123.436c.233.292.35.803.35 1.536v4.837h2.961V7.255c0-2.605-1.107-3.908-3.32-3.908M22.318 8.042a5.52 5.52 0 0 0-.934-.57 16.245 16.245 0 0 0-1.368-.54c-.805-.303-1.207-.563-1.207-.777 0-.316.214-.474.641-.474.742 0 1.44.322 2.095.967l1.396-2.124c-1.057-.785-2.214-1.177-3.472-1.177-.994 0-1.82.27-2.48.807-.661.537-.991 1.248-.991 2.133 0 .835.257 1.486.773 1.953.516.469 1.22.848 2.113 1.139.944.29 1.415.55 1.415.777 0 .354-.276.532-.83.532-.868 0-1.673-.355-2.415-1.063l-1.396 1.991c1.031.924 2.295 1.385 3.792 1.385 1.208 0 2.13-.275 2.764-.825.636-.55.953-1.274.953-2.171 0-.455-.063-.838-.189-1.148-.125-.309-.345-.581-.66-.815M38.412 7.217c.088-.48.292-.851.613-1.11.32-.259.707-.39 1.16-.39.44 0 .805.134 1.094.4.29.265.485.626.585 1.08l-3.452.02zm1.735-3.87c-1.358 0-2.478.453-3.358 1.356-.88.905-1.32 2.058-1.32 3.462 0 1.429.452 2.59 1.358 3.48.905.891 2.05 1.337 3.434 1.337.918 0 1.728-.16 2.434-.484.704-.321 1.264-.748 1.679-1.28l-1.566-1.764c-.63.747-1.371 1.12-2.227 1.12-.553 0-1.028-.143-1.424-.427-.396-.284-.645-.68-.745-1.185h6.264c.05-.254.075-.544.075-.873 0-1.39-.43-2.529-1.292-3.414-.862-.885-1.966-1.328-3.312-1.328zM50.845 10.346c-.629 0-1.135-.202-1.519-.606-.383-.406-.575-.936-.575-1.594 0-.645.189-1.163.566-1.555.377-.392.874-.588 1.49-.588.78 0 1.416.297 1.906.892l1.981-1.688A4.481 4.481 0 0 0 52.95 3.83a5.36 5.36 0 0 0-2.236-.484c-1.459 0-2.648.45-3.566 1.347-.918.898-1.377 2.06-1.377 3.49 0 1.416.453 2.573 1.358 3.47.906.898 2.05 1.347 3.434 1.347.918 0 1.736-.161 2.453-.483.717-.322 1.29-.736 1.717-1.242L52.713 9.51a2.416 2.416 0 0 1-1.868.835M59.92 10.403c-.465 0-.698-.354-.698-1.063V5.946h2.226V3.537h-2.226V.257L56.26.56v2.977h-1.038v2.41h1.038V9.89c0 1.012.245 1.78.736 2.305.49.524 1.15.786 1.98.786.982 0 1.844-.209 2.586-.626l-.736-2.2a1.947 1.947 0 0 1-.906.247M68.401 9.748c-.384.411-.858.617-1.424.617-.58 0-1.057-.208-1.434-.626-.378-.417-.566-.935-.566-1.556 0-.632.185-1.153.556-1.564.371-.411.852-.616 1.444-.616.578 0 1.056.202 1.433.606.378.406.566.93.566 1.574 0 .633-.191 1.156-.575 1.565m-1.424-6.401c-1.472 0-2.67.453-3.595 1.357-.924.904-1.386 2.064-1.386 3.48s.462 2.573 1.386 3.471c.925.898 2.123 1.347 3.595 1.347 1.459 0 2.654-.45 3.584-1.347.931-.898 1.397-2.055 1.397-3.472 0-1.428-.466-2.591-1.397-3.489-.93-.897-2.125-1.347-3.584-1.347M30.666 9.748c-.383.411-.858.617-1.424.617-.579 0-1.057-.208-1.434-.626a2.132 2.132 0 0 1-.515-1.048v-.096h-.018a2.714 2.714 0 0 1-.033-.412c0-.632.185-1.153.556-1.564.372-.411.853-.616 1.444-.616.578 0 1.056.202 1.434.606.377.406.566.93.566 1.574 0 .633-.192 1.156-.576 1.565m-1.424-6.401c-1.472 0-2.67.453-3.594 1.357-.925.904-1.387 2.064-1.387 3.48 0 .389.038.757.108 1.106v8.58h2.924v-5.188c.585.211 1.234.32 1.949.32 1.459 0 2.654-.45 3.585-1.347.93-.898 1.396-2.055 1.396-3.472 0-1.428-.466-2.591-1.396-3.489-.931-.897-2.126-1.347-3.585-1.347M79.09 3.347c-1.083 0-1.976.482-2.68 1.442h-.019V3.537H73.43v9.275h2.962V8.639c0-.632.183-1.14.548-1.527.364-.385.886-.578 1.566-.578.276 0 .502.006.679.018V3.367c-.013-.012-.044-.02-.095-.02"
      />
    </g>
  </g>
</svg>
