<svg xmlns="http://www.w3.org/2000/svg" width="205" height="57" viewBox="0 0 205 57">
    <g fill="#fff" fill-rule="evenodd">
        <path d="M66.25 38.256h5.13V21.99h-5.13zM85.08 21.655c-1.941 0-3.574.767-4.898 2.296v-1.962h-5.195v16.268h5.195v-8.184c0-1.22.265-2.152.795-2.795.53-.644 1.246-.964 2.15-.964.905 0 1.562.255 1.97.765.408.511.612 1.408.612 2.694v8.484h5.196V28.51c0-4.57-1.942-6.855-5.825-6.855M104.572 29.89a9.681 9.681 0 0 0-1.638-.998c-.54-.255-1.34-.57-2.4-.948-1.412-.532-2.118-.987-2.118-1.363 0-.555.375-.832 1.126-.832 1.301 0 2.526.565 3.673 1.696l2.449-3.725c-1.853-1.376-3.883-2.065-6.09-2.065-1.742 0-3.193.472-4.351 1.415-1.158.943-1.738 2.19-1.738 3.743 0 1.463.453 2.605 1.357 3.425.905.822 2.14 1.487 3.707 1.997 1.654.51 2.482.964 2.482 1.364 0 .621-.486.933-1.456.933-1.523 0-2.935-.622-4.236-1.864l-2.45 3.492c1.81 1.62 4.027 2.43 6.653 2.43 2.118 0 3.734-.483 4.848-1.448 1.114-.965 1.671-2.234 1.671-3.809 0-.798-.11-1.47-.33-2.013-.222-.542-.608-1.02-1.16-1.43M132.8 28.443c.154-.843.513-1.492 1.075-1.947.563-.454 1.241-.682 2.036-.682.772 0 1.412.234 1.92.7.507.465.849 1.097 1.025 1.896l-6.056.033zm3.045-6.788c-2.383 0-4.347.794-5.891 2.38-1.544 1.586-2.317 3.609-2.317 6.071 0 2.507.795 4.541 2.383 6.104 1.589 1.563 3.596 2.345 6.023 2.345 1.61 0 3.033-.281 4.27-.848 1.235-.564 2.216-1.313 2.944-2.244l-2.746-3.095c-1.103 1.31-2.405 1.963-3.905 1.963-.971 0-1.804-.25-2.499-.748-.695-.5-1.13-1.192-1.307-2.08h10.987c.088-.444.132-.953.132-1.53 0-2.44-.755-4.435-2.267-5.989-1.51-1.551-3.447-2.329-5.807-2.329zM154.609 33.931c-1.104 0-1.992-.353-2.664-1.063-.673-.71-1.01-1.641-1.01-2.795 0-1.132.331-2.04.993-2.728.662-.687 1.532-1.03 2.614-1.03 1.368 0 2.482.52 3.343 1.563l3.475-2.961c-.795-1.042-1.815-1.847-3.062-2.413a9.403 9.403 0 0 0-3.921-.848c-2.56 0-4.644.788-6.255 2.363-1.61 1.573-2.416 3.614-2.416 6.12 0 2.484.795 4.513 2.383 6.088 1.589 1.574 3.596 2.362 6.023 2.362 1.61 0 3.045-.283 4.302-.847 1.258-.566 2.262-1.292 3.012-2.18l-3.541-3.094c-.883.977-1.975 1.463-3.276 1.463M170.526 34.03c-.816 0-1.224-.619-1.224-1.862v-5.954h3.905V21.99h-3.905v-5.755l-5.196.532v5.223h-1.82v4.225h1.82v6.919c0 1.775.43 3.122 1.29 4.043.861.92 2.02 1.38 3.476 1.38 1.72 0 3.232-.367 4.533-1.099l-1.29-3.859c-.552.29-1.081.433-1.589.433M185.402 32.883c-.673.72-1.506 1.082-2.499 1.082-1.015 0-1.853-.366-2.515-1.097-.662-.732-.993-1.642-.993-2.73 0-1.108.326-2.022.976-2.743.651-.722 1.495-1.081 2.532-1.081 1.015 0 1.853.355 2.515 1.063.662.711.993 1.632.993 2.762 0 1.108-.336 2.026-1.01 2.744m-2.498-11.228c-2.581 0-4.683.794-6.304 2.38-1.622 1.586-2.433 3.62-2.433 6.104 0 2.485.811 4.514 2.433 6.089 1.621 1.574 3.723 2.362 6.304 2.362 2.56 0 4.655-.788 6.288-2.362 1.632-1.575 2.449-3.604 2.449-6.09 0-2.505-.817-4.545-2.45-6.12-1.632-1.574-3.728-2.363-6.287-2.363M119.215 32.883c-.673.72-1.506 1.082-2.499 1.082-1.015 0-1.853-.366-2.515-1.097a3.74 3.74 0 0 1-.902-1.839v-.169h-.034a4.76 4.76 0 0 1-.057-.721c0-1.11.326-2.023.976-2.744.651-.722 1.495-1.081 2.532-1.081 1.015 0 1.853.355 2.515 1.063.662.711.993 1.632.993 2.762 0 1.108-.337 2.026-1.01 2.744m-2.498-11.228c-2.581 0-4.683.794-6.304 2.38-1.622 1.586-2.433 3.62-2.433 6.104 0 .683.068 1.328.19 1.94v15.05h5.13v-9.1c1.025.37 2.164.56 3.417.56 2.56 0 4.655-.787 6.288-2.361 1.632-1.575 2.449-3.604 2.449-6.09 0-2.505-.817-4.545-2.45-6.12-1.632-1.574-3.728-2.363-6.287-2.363M204.15 21.655c-1.9 0-3.466.845-4.7 2.53h-.033v-2.196h-5.196v16.268h5.196v-7.319c0-1.109.32-2.002.96-2.68.64-.674 1.555-1.013 2.746-1.013.486 0 .882.011 1.192.033V21.69c-.023-.021-.077-.035-.166-.035"/>
        <g>
            <path d="M70.817 11.304h4.573v4.2c-1.09.97-2.525 1.454-4.306 1.454-1.612 0-2.933-.518-3.959-1.556-1.027-1.037-1.54-2.404-1.54-4.098 0-1.686.505-3.058 1.516-4.116 1.01-1.057 2.329-1.587 3.952-1.587 1.687 0 3.074.553 4.164 1.66l-.645.567c-.932-.905-2.104-1.358-3.519-1.358-1.33 0-2.42.448-3.268 1.343-.848.895-1.273 2.058-1.273 3.49 0 1.401.421 2.549 1.265 3.443.843.896 1.946 1.343 3.307 1.343 1.435 0 2.577-.353 3.425-1.058v-2.875h-3.692v-.852zM81.345 9.139c.189 0 .324.005.408.016v.916a6.308 6.308 0 0 0-.486-.032c-.776 0-1.394.287-1.855.862-.46.573-.691 1.318-.691 2.234v3.76h-.833V9.218h.833v1.469h.03c.577-1.031 1.441-1.548 2.594-1.548M86.263 16.184c.786 0 1.462-.287 2.027-.86.566-.574.848-1.304.848-2.188 0-.906-.27-1.664-.809-2.275-.54-.611-1.223-.916-2.05-.916-.828 0-1.527.296-2.098.885-.57.59-.856 1.358-.856 2.306 0 .874.274 1.6.825 2.18.55.578 1.254.868 2.113.868zm2.844-6.966h.817v7.677h-.786v-1.47h-.03c-.65 1.033-1.614 1.549-2.892 1.549-1.058 0-1.946-.355-2.663-1.067-.718-.71-1.077-1.64-1.077-2.788 0-1.125.349-2.071 1.045-2.834.697-.764 1.585-1.147 2.664-1.147.597 0 1.15.14 1.657.42.508.279.92.672 1.233 1.177h.032V9.218zM96.068 16.184c.86 0 1.563-.29 2.114-.869.55-.579.825-1.305.825-2.179 0-.948-.286-1.717-.857-2.306a2.808 2.808 0 0 0-2.097-.885c-.829 0-1.512.305-2.051.916-.54.61-.809 1.37-.809 2.275 0 .884.283 1.614.849 2.188.564.573 1.24.86 2.026.86m.078-7.046c1.08 0 1.967.383 2.664 1.147.696.763 1.045 1.709 1.045 2.834 0 1.148-.36 2.077-1.077 2.788-.717.712-1.605 1.067-2.663 1.067-1.267 0-2.221-.5-2.86-1.501h-.03v4.55h-.834V9.217h.833v1.533h.016a3.4 3.4 0 0 1 1.248-1.193 3.387 3.387 0 0 1 1.658-.42M105.73 9.139c1.77 0 2.656 1.069 2.656 3.207v4.549h-.833v-4.44c0-.936-.175-1.59-.526-1.965-.35-.374-.846-.56-1.485-.56-.838 0-1.513.287-2.027.86-.513.574-.77 1.34-.77 2.299v3.806h-.832V5.27h.832v5.45h.016a3.324 3.324 0 0 1 1.266-1.17 3.586 3.586 0 0 1 1.704-.411M116.05 16.09c1.14 0 2.119-.354 2.935-1.059l-1.422-1.295.58-.679 1.475 1.329c.673-.875 1.008-1.913 1.008-3.115 0-1.379-.434-2.524-1.304-3.434-.869-.912-1.959-1.368-3.268-1.368-1.33 0-2.434.458-3.307 1.374-.875.917-1.313 2.06-1.313 3.428 0 1.38.435 2.528 1.304 3.444.868.916 1.972 1.374 3.312 1.374zm5.756.267l-.583.711-1.55-1.411c-1.007.878-2.22 1.317-3.635 1.317-1.623 0-2.951-.544-3.983-1.636-1.032-1.089-1.548-2.445-1.548-4.067 0-1.61.516-2.959 1.548-4.043 1.032-1.085 2.36-1.627 3.983-1.627 1.571 0 2.884.527 3.936 1.58 1.054 1.053 1.579 2.416 1.579 4.09 0 1.457-.416 2.702-1.245 3.736l1.498 1.35zM124.209 16.895V5.68h.88v10.361h5.845v.854z"/>
        </g>
        <path d="M50.511 35.095l-7.002 7.04c.34-1.145.583-2.254.583-3.105a1.875 1.875 0 0 0-.836-1.551l-3.114-2.086-3.352 3.69-1.295 4.594.537-5.163 3.332-4.04.974-1.957a1.894 1.894 0 0 0-.958-2.59l-5.907-2.475s8.413-1.3 8.413-7.807l-5.825-1.951-1.294 2.601v-2.6c0-2.695-2.175-4.882-4.856-4.882h-3.26c-2.683 0-4.857 2.187-4.857 4.883v2.6L20.5 17.693l-5.826 1.951c0 6.506 8.415 7.807 8.415 7.807l-5.907 2.475a1.893 1.893 0 0 0-.959 2.59l.974 1.958 3.333 4.039.536 5.163-1.294-4.595-3.354-3.689-3.114 2.086a1.874 1.874 0 0 0-.835 1.551c0 .85.242 1.96.583 3.104l-7.003-7.04c-3.656-3.674-3.656-9.655 0-13.33l15.6-15.683a9.325 9.325 0 0 1 6.631-2.755c2.402 0 4.803.918 6.631 2.755l15.6 15.684c3.656 3.674 3.656 9.655 0 13.33zm-25.076 1.71l-1.2 2.033-1.793-4.879 2.993 2.846zm6.892 2.033l-1.2-2.033 2.993-2.846-1.793 4.88zm-.567 1.532l-.876 6.601-1.942-7.157 1.294-1.951 1.524 2.507zm-4.14-.556l-1.943 7.157-.876-6.601 1.523-2.507 1.296 1.951zm-1.861-5.652l.206-.479a.716.716 0 0 1 .505-.428c.292-.06.654-.069.847-.069h1.927c.193 0 .554.01.848.07a.718.718 0 0 1 .505.427l.206.48s-.783 1.005-2.523 1.125c-1.74-.12-2.521-1.126-2.521-1.126zm4.212-5.298c0-.238.073-.458.196-.642a16.863 16.863 0 0 0 1.741-.207 1.16 1.16 0 0 1-.782 2.01 1.16 1.16 0 0 1-1.155-1.161zm1.155 2.463c.734 0 1.385-.333 1.834-.849v1.475l-1.2 1.328c-.31-1.003-1.21-1.287-1.914-1.303l-1.512-.048v-.002l-.054.002-.053-.002v.002l-1.512.048c-.704.016-1.604.3-1.914 1.303l-1.2-1.328v-4.147c2.398.567 4.244.455 4.68.416.094.009.265.019.484.026a2.417 2.417 0 0 0-.088.616 2.46 2.46 0 0 0 2.45 2.463zM52.851 19.41L37.251 3.73c-4.945-4.972-12.995-4.972-17.941 0L3.71 19.411c-4.947 4.973-4.947 13.065 0 18.036l15.6 15.682a12.615 12.615 0 0 0 8.97 3.73c3.249 0 6.498-1.244 8.97-3.73l15.601-15.682c4.947-4.971 4.947-13.063 0-18.036z"/>
    </g>
</svg>
