<svg xmlns="http://www.w3.org/2000/svg" width="166" height="372" viewBox="0 0 166 372">
    <g fill="#131313" fill-rule="evenodd">
        <path d="M245.417 141.222L82.9 53.086l4.418-7.902 162.514 88.137-4.415 7.901M9.161 102.024V95.83l3.618-1.929 73.478 39.419-4.418 7.901zM243.558 229.006l-81.255-44.066 1.473-2.634 81.255 44.07-1.473 2.63M163.208 278.057L1.646 190.435l4.418-7.902 161.563 87.618-4.419 7.906"/>
        <path d="M86.998 141.214l-4.448-7.885 161.057-88.137 4.447 7.886-161.056 88.136M168.594 278.563l-4.448-7.89 161.057-88.132 4.447 7.886-161.056 88.136M85.646 232.4L83 227.07 163.526 183l4.373 5.75-80.223 44.98z"/>
        <path d="M79.47 323.84h9.157V137.272h-9.158zM161.065 364.345h9.158v-90.243h-9.158zM164.118 186.488h6.795V93.205h-6.795z"/>
        <path d="M9.158 277.1l156.453 84.786 157.967-88.177V95.867L165.652 10.223 9.158 95.855V277.1zm156.486 94.458a4.558 4.558 0 0 1-2.205-.56L2.374 283.722A4.494 4.494 0 0 1 0 279.771V93.205c0-1.64.901-3.148 2.357-3.942L163.418 1.126a4.643 4.643 0 0 1 4.435-.008L330.362 89.25a4.5 4.5 0 0 1 2.37 3.955v183.138a4.5 4.5 0 0 1-2.32 3.922l-162.51 90.706c-.699.393-1.48.587-2.258.587z"/>
    </g>
</svg>
