<svg xmlns="http://www.w3.org/2000/svg" xmlns:xlink="http://www.w3.org/1999/xlink" width="750" height="620"
    viewBox="0 0 750 620">
    <defs>
        <rect id="b" width="240" height="200" x="181" y="283" rx="28" />
        <filter id="a" width="155.8%" height="167%" x="-27.9%" y="-17.5%" filterUnits="objectBoundingBox">
            <feOffset dy="32" in="SourceAlpha" result="shadowOffsetOuter1" />
            <feGaussianBlur in="shadowOffsetOuter1" result="shadowBlurOuter1" stdDeviation="17" />
            <feColorMatrix in="shadowBlurOuter1" values="0 0 0 0 0 0 0 0 0 0 0 0 0 0 0 0 0 0 0.0788892663 0" />
        </filter>
        <path id="c" d="M.182.172h35.465v42.332H.182z" />
        <path id="f"
            d="M215.203 160.984c-7.442 0-14.975-1.397-21.646-5.232-12.82-7.365-19.89-22.35-21.015-44.538-.587-11.6-4.381-19.947-11.278-24.815-12.605-8.896-31.638-3.337-31.83-3.28l-.78-2.596c.832-.25 20.468-5.996 34.162 3.653 7.618 5.37 11.802 14.42 12.436 26.9 1.074 21.21 7.688 35.45 19.655 42.326 22.882 13.15 58.133-4.795 58.488-4.98l1.244 2.41c-1.082.556-19.942 10.152-39.436 10.152" />
        <filter id="e" width="125.4%" height="138.8%" x="-12.7%" y="-17%" filterUnits="objectBoundingBox">
            <feOffset dy="2" in="SourceAlpha" result="shadowOffsetOuter1" />
            <feGaussianBlur in="shadowOffsetOuter1" result="shadowBlurOuter1" stdDeviation="5" />
            <feColorMatrix in="shadowBlurOuter1" values="0 0 0 0 0.350003946 0 0 0 0 0.425584882 0 0 0 0 1 0 0 0 1 0" />
        </filter>
    </defs>
    <g fill="none" fill-rule="evenodd" transform="translate(-60 -60)">
        <g fill-rule="nonzero" transform="rotate(30 551.5 551.5)">
            <rect width="655" height="655" x="224" y="224" fill="#000" rx="115" />
            <rect width="722" height="722" x="190.5" y="190.5" stroke="#979797" opacity=".7" rx="135" />
            <rect width="806" height="806" x="148.5" y="148.5" stroke="#979797" opacity=".128" rx="165" />
        </g>
        <path stroke="#354c87" stroke-width="3"
            d="M353 488.98c-53.598-4.665-77.234 20.16-70.909 74.473 9.488 81.47-50.935 126.454-81.396 64.854-30.46-61.6-101.37-137.328-12.484-194.307" />
        <g fill-rule="nonzero">
            <use fill="#000" filter="url(#a)" xlink:href="#b" />
            <use fill="#FFF" xlink:href="#b" />
        </g>
        <text font-family="'Lato', sans-serif" font-size="17" font-weight="500" letter-spacing=".468">
            <tspan x="204" y="329" fill="#91303C">type</tspan>
            <tspan x="245.465" y="329" fill="#4A4A4A" letter-spacing=".442"> User {</tspan>
            <tspan x="214" y="357.6" fill="#354c87" letter-spacing=".442">id:</tspan>
            <tspan x="233.209" y="357.6" fill="#4A4A4A" letter-spacing=".442"> </tspan>
            <tspan x="238.444" y="357.6" fill="#F5A623" letter-spacing=".442">ID!</tspan>
            <tspan x="214" y="386.2" fill="#354c87" letter-spacing=".442">name:</tspan>
            <tspan x="263.57" y="386.2" fill="#4A4A4A" letter-spacing=".442"> </tspan>
            <tspan x="268.805" y="386.2" fill="#F5A623" letter-spacing=".442">String</tspan>
            <tspan x="214" y="414.8" fill="#354c87" letter-spacing=".442">age:</tspan>
            <tspan x="248.831" y="414.8" fill="#4A4A4A" letter-spacing=".442"> </tspan>
            <tspan x="254.067" y="414.8" fill="#F5A623" letter-spacing=".442">Int</tspan>
            <tspan x="204" y="443.4" fill="#4A4A4A" letter-spacing=".442">}</tspan>
        </text>
        <g transform="translate(381.958 406.955)">
            <mask id="d" fill="#fff">
                <use xlink:href="#c" />
            </mask>
            <path fill="#000"
                d="M35.435 25.08c-1.27 12.241-9.43 17.424-20.068 17.424C4.729 42.504.182 31.943.182 19.635.182 7.328 4.12.158 16.46.171 32.232.188 36.739 12.51 35.435 25.08"
                mask="url(#d)" />
        </g>
        <path fill="#FFF"
            d="M363.174 500.234l-1.38 18.082s-9.518-14.513-10.945-18.082c-1.427-3.57-4.045-12.847-4.283-13.562-.236-.715-6.13-3.828-12.031-1.772-1.589.553-.338 5.794-.098 5.821.238.032-2.576-.172-5.587.292-1.036.16-1.097 1.83 3.262 2.943 1.94.496 4.5 2.293 5.73 3.875 2.082 2.682 5.166 6.234 5.87 7.876.612 1.429 4.56 21.286 15.46 32.141 3.134 3.12 8.451 2.074 10.39-1.903 2.568-5.257 5.409-14.335 6.032-29.286l-12.42-6.425z" />
        <path fill="#1C1C1C"
            d="M434.84 619.786c-1.33-23.597-1.805-24.454-11.624-65.515a7.388 7.388 0 0 0-7.182-5.666h-35.098a7.393 7.393 0 0 0-7.295 6.244c-6.497 41.23-6.874 42.246-6.874 65.79 0 21.965 4.788 73.539 4.788 73.539 1.676 2.816 13.024 4.266 16.104 2.913 0 0 2.537-45.85 2.299-64.007-.096-7.237 5.852-46.306 7.441-56.586l3.343 1.22c3.114 12.015 12.123 47.17 12.697 54.05.842 10.087 4.137 64.45 4.137 64.45 4.864 2.432 14.31 3.202 17.518-.66 0 0 .984-53.841-.253-75.772" />
        <g transform="translate(328 406)">
            <use fill="#000" filter="url(#e)" xlink:href="#f" />
            <use fill="#354c87" xlink:href="#f" />
        </g>
        <path fill="#FFF"
            d="M445.802 497.686l1.38 18.084s9.517-14.513 10.944-18.084c1.427-3.569 4.045-12.848 4.283-13.56.237-.715 6.13-3.828 12.032-1.772 1.588.553.338 5.793.1 5.821-.24.032 2.573-.172 5.584.291 1.034.16 1.098 1.832-3.262 2.944-1.94.493-4.5 2.29-5.73 3.873-2.082 2.684-5.165 6.233-5.87 7.875-.612 1.434-4.572 21.344-15.506 32.186-3.096 3.074-8.324 2.097-10.314-1.784-2.68-5.223-5.904-14.377-7.618-29.775l13.977-6.1z" />
        <path fill="#363636"
            d="M389.923 459.857s-19.326 9.209-22.182 11.827c-2.854 2.616-7.65 34.664-7.65 34.664 4.045 4.232 9.515 7.54 15.993 6.959l1.65-8.554s2.38 18.322 0 25.46c-2.379 7.139-5.733 25.355-5.733 25.355s22.482 12.369 52.637.952c0 0 5.202-49.861 3.299-61.52 1.96 8.358 2.333 11.525 3.888 18.14 5.227.8 12.197-3.174 15.927-9.514 0 0-5.963-34.286-14.105-39.566-6.365-4.13-26.648-8.318-26.648-8.318l-17.076 4.115z" />
        <path fill="#FFF"
            d="M414.182 431.013c0 3.73-3.073 7.875-4.42 11.218-2.654 6.596-7.488 11.58-12.784 11.58-3.568 0-7.063-2.407-9.836-6.063-3.426-4.515-3.74-11.144-3.74-17.273 0-11.087 3.93-18.54 13.778-18.54 7.98 0 17.002 4.937 17.002 19.078" />
        <path fill="#FFF"
            d="M408.226 463.737c-5.723 3.324-12.862 3.881-17.065 1.571-1.078-.59-1.6-1.822-1.459-3.04.606-5.273.491-11.007-.238-17.138l16.957-1.257c.623 5.859 1.454 10.03 3.6 14.087 1.087 2.06.22 4.605-1.795 5.777" />
        <path fill="#354c87"
            d="M376.406 501.422l-17.625-2.707a7.846 7.846 0 0 1-6.563-8.945 7.845 7.845 0 0 1 8.945-6.559l17.625 2.707-2.382 15.504zM435.605 495.225l-.72-2.869-9.873 2.834-.749-2.606 9.963-2.859-.834-3.325 17.297-4.336a7.843 7.843 0 0 1 9.515 5.7 7.842 7.842 0 0 1-5.7 9.514l-17.296 4.337-.943-3.759-9.295 2.67-.748-2.606 9.383-2.695z" />
        <path fill="#EEEBEB"
            d="M390.07 455.04c1.665 1.06 3.43 1.662 5.215 1.662 4.6 0 8.83-3.786 11.608-9.096l-.013-.088c-2.674 3.78-6.164 6.293-9.9 6.293-2.452 0-4.866-1.154-7.038-3.054.083 1.455.126 2.882.128 4.284" />
        <path fill="#000" d="M414.88 434.764h-4.102a3.004 3.004 0 0 1-3.003-3.005v-9.094h7.106v12.099z" />
        <path fill="#FFF"
            d="M414.815 435.501c-.287 3.058-1.754 5.255-3.267 5.113-1.512-.143-2.145-2.65-1.86-5.708.287-3.059 1.746-5.424 3.258-5.283 1.512.144 2.154 2.822 1.87 5.878" />
        <path fill="#000"
            d="M413.597 427.457h-20.653a8.757 8.757 0 0 1-8.756-8.756c0-4.1 3.324-7.422 7.425-7.422h15.206a6.777 6.777 0 0 1 6.778 6.776v9.402z" />
        <rect width="240" height="223" x="516" y="400" fill="#FFF" fill-rule="nonzero" rx="28" />
        <g transform="translate(541 433)">
            <g transform="translate(0, 20)">
                <path fill="#2DD999" stroke="#FFF" stroke-width=".5"
                    d="M12.237 11l-4.539 5.295-2.69-2.017L4 15.623l3.95 3.026 5.548-6.472z" />
                <rect xmlns="http://www.w3.org/2000/svg" width="159" height="26" x="-4" y="60" fill="#D8D8D8" fill-rule="nonzero" opacity=".288" rx="11"/>
                <path fill="#2DD999" stroke="#FFF" stroke-width=".5"
                    d="M12.237 40l-4.539 5.295-2.69-2.017L4 44.623l3.95 3.026 5.548-6.472zM12.237 98.351l-4.539 5.295-2.69-2.017L4 102.974 7.95 106l5.548-6.472z" />
            </g>
            <text font-family="'Lato', sans-serif" font-size="17" font-weight="500" letter-spacing=".468">
                <tspan x="30" y="13" fill="#91303C">type</tspan>
                <tspan x="71.465" y="13" fill="#4A4A4A" letter-spacing=".442"> User {</tspan>
                <tspan x="40" y="41.6" fill="#354c87" letter-spacing=".442">id:</tspan>
                <tspan x="59.209" y="41.6" fill="#4A4A4A" letter-spacing=".442"> </tspan>
                <tspan x="64.444" y="41.6" fill="#F5A623" letter-spacing=".442">ID!</tspan>
                <tspan x="40" y="70.2" fill="#354c87" letter-spacing=".442">name:</tspan>
                <tspan x="79.57" y="70.2" fill="#4A4A4A" letter-spacing=".442"> </tspan>
                <tspan x="94.805" y="70.2" fill="#F5A623" letter-spacing=".442">String</tspan>
                <tspan x="40" y="98.8" fill="#354c87" letter-spacing=".442">age:</tspan>
                <tspan x="64.831" y="98.8" fill="#4A4A4A" letter-spacing=".442"> </tspan>
                <tspan x="80.067" y="98.8" fill="#F5A623" letter-spacing=".442">String</tspan>
                <tspan x="40" y="127.4" fill="#354c87" letter-spacing=".442">title:</tspan>
                <tspan x="85.357" y="127.4" fill="#F5A623" letter-spacing=".442"> String</tspan>
                <tspan x="30" y="156" fill="#4A4A4A" letter-spacing=".442">}</tspan>
            </text>
            <circle cx="9" cy="35" r="9" stroke="#2DD999" />
            <circle cx="9" cy="64" r="9" stroke="#2DD999" />
            <circle cx="9" cy="93" r="9" stroke="#D0021B" />
            <circle cx="9" cy="122" r="9" stroke="#2DD999" />
            <g transform="translate(0, 20)" fill-rule="nonzero" stroke="#D0021B">
                <path d="M5.5 70l6.5 6.5M12 70l-6.5 6.5" />
            </g>
        </g>
    </g>
</svg>
