<svg
  xmlns="http://www.w3.org/2000/svg"
  xmlns:xlink="http://www.w3.org/1999/xlink"
  width="140"
  height="140"
  viewBox="0 0 140 140"
>
  <defs>
    <rect id="b" width="86" height="86" x="31.811" y="31.811" rx="19" />
    <filter
      id="a"
      width="162.8%"
      height="162.8%"
      x="-31.4%"
      y="-17.4%"
      filterUnits="objectBoundingBox"
    >
      <feOffset dy="12" in="SourceAlpha" result="shadowOffsetOuter1" />
      <feGaussianBlur in="shadowOffsetOuter1" result="shadowBlurOuter1" stdDeviation="7" />
      <feColorMatrix in="shadowBlurOuter1" values="0 0 0 0 0 0 0 0 0 0 0 0 0 0 0 0 0 0 0.03 0" />
    </filter>
  </defs>
  <g fill="none" fill-rule="nonzero" transform="translate(0 -10)">
    <g transform="rotate(45 74.811 74.811)">
      <use fill="#000" filter="url(#a)" xlink:href="#b" />
      <use fill="#FFF" xlink:href="#b" />
    </g>
    <rect
      width="105"
      height="105"
      x="22.453"
      y="22.453"
      stroke="#979797"
      opacity=".112"
      rx="26"
      transform="rotate(45 74.953 74.953)"
    />
    <path
      fill="#000"
      stroke="#000"
      d="M74.5 51C62.683 51 53 60.767 53 72.584 53 84.332 62.595 94 74.5 94 86.39 94 96 84.346 96 72.584 96 60.767 86.317 51 74.5 51zm3.78 40.103c-1.21.251-2.495.377-3.78.377-1.285 0-2.57-.126-3.78-.377v-5.896c0-1.411.379-1.915.883-2.595.256-.294.41-.557 1.561-2.293l-1.94-.302c-4.988-.731-6.953-3.326-7.734-5.342-1.008-2.696-.48-6.072 1.335-8.213.277-.328.504-.883.303-1.462-.379-1.159-.328-2.998-.076-3.704 1.336.191 2.71 1.148 3.855 1.84.528.308.805.226 1.058.252.92-.192 2.356-.655 4.56-.655 1.36 0 2.797.201 4.208.604.252-.006.658.209 1.36-.201 1.198-.73 2.525-1.654 3.855-1.84.252.706.303 2.545-.075 3.704-.202.58.025 1.134.302 1.462 1.814 2.141 2.343 5.517 1.335 8.213-.78 2.016-2.746 4.611-7.735 5.342l-1.94.302c1.19 1.795 1.315 2.01 1.563 2.293.503.68.881 1.184.881 2.595v5.896zm2.519-.731v-5.165c0-1.436-.303-2.394-.706-3.1 3.83-1.032 6.551-3.3 7.76-6.55 1.286-3.426.706-7.508-1.436-10.33.379-1.688.379-4.384-.529-5.644-.403-.554-.957-.856-1.663-.856H84.2c-1.953.105-3.491 1.09-5.14 2.09a17.77 17.77 0 0 0-4.585-.604c-1.562 0-3.124.227-4.51.605-1.735-1.047-3.258-1.988-5.266-2.091-.63 0-1.184.302-1.587.856-.907 1.26-.907 3.956-.53 5.644-2.141 2.822-2.72 6.929-1.436 10.33 1.21 3.25 3.931 5.518 7.76 6.55-.312.548-.56 1.253-.657 2.208-.773.267-1.444.354-2.068.17-.658-.194-1.17-.633-1.616-1.383-1.001-1.68-2.705-3.053-4.646-2.874l.222 2.51c.898-.083 1.793.868 2.257 1.651.766 1.291 1.799 2.137 3.07 2.513.943.278 1.805.271 2.733.073v3.397c-7.332-2.57-12.681-9.574-12.681-17.788 0-10.43 8.55-19.064 18.98-19.064s18.98 8.633 18.98 19.064c0 8.214-5.35 15.218-12.681 17.788z"
    />
  </g>
</svg>
