<svg xmlns="http://www.w3.org/2000/svg" width="57" height="57" viewBox="0 0 57 57">
  <g fill="#FFF" fill-rule="evenodd">
    <path
      d="M50.511 35.095l-7.002 7.04c.34-1.145.583-2.254.583-3.105a1.875 1.875 0 0 0-.836-1.551l-3.114-2.086-3.352 3.69-1.295 4.594.537-5.163 3.332-4.04.974-1.957a1.894 1.894 0 0 0-.958-2.59l-5.907-2.475s8.413-1.3 8.413-7.807l-5.825-1.951-1.294 2.601v-2.6c0-2.695-2.175-4.882-4.856-4.882h-3.26c-2.683 0-4.857 2.187-4.857 4.883v2.6L20.5 17.693l-5.826 1.951c0 6.506 8.415 7.807 8.415 7.807l-5.907 2.475a1.893 1.893 0 0 0-.959 2.59l.974 1.958 3.333 4.039.536 5.163-1.294-4.595-3.354-3.689-3.114 2.086a1.874 1.874 0 0 0-.835 1.551c0 .85.242 1.96.583 3.104l-7.003-7.04c-3.656-3.674-3.656-9.655 0-13.33l15.6-15.683a9.325 9.325 0 0 1 6.631-2.755c2.402 0 4.803.918 6.631 2.755l15.6 15.684c3.656 3.674 3.656 9.655 0 13.33zm-25.076 1.71l-1.2 2.033-1.793-4.879 2.993 2.846zm6.892 2.033l-1.2-2.033 2.993-2.846-1.793 4.88zm-.567 1.532l-.876 6.601-1.942-7.157 1.294-1.951 1.524 2.507zm-4.14-.556l-1.943 7.157-.876-6.601 1.523-2.507 1.296 1.951zm-1.861-5.652l.206-.479a.716.716 0 0 1 .505-.428c.292-.06.654-.069.847-.069h1.927c.193 0 .554.01.848.07a.718.718 0 0 1 .505.427l.206.48s-.783 1.005-2.523 1.125c-1.74-.12-2.521-1.126-2.521-1.126zm4.212-5.298c0-.238.073-.458.196-.642a16.863 16.863 0 0 0 1.741-.207 1.16 1.16 0 0 1-.782 2.01 1.16 1.16 0 0 1-1.155-1.161zm1.155 2.463c.734 0 1.385-.333 1.834-.849v1.475l-1.2 1.328c-.31-1.003-1.21-1.287-1.914-1.303l-1.512-.048v-.002l-.054.002-.053-.002v.002l-1.512.048c-.704.016-1.604.3-1.914 1.303l-1.2-1.328v-4.147c2.398.567 4.244.455 4.68.416.094.009.265.019.484.026a2.417 2.417 0 0 0-.088.616 2.46 2.46 0 0 0 2.45 2.463zM52.851 19.41L37.251 3.73c-4.945-4.972-12.995-4.972-17.941 0L3.71 19.411c-4.947 4.973-4.947 13.065 0 18.036l15.6 15.682a12.615 12.615 0 0 0 8.97 3.73c3.249 0 6.498-1.244 8.97-3.73l15.601-15.682c4.947-4.971 4.947-13.063 0-18.036z"
    />
  </g>
</svg>
